PathFileType	4	(X/Y/Z)	C:/Users/beibeiliu/ov580/test_trc/capture2\sequence.12_training_dense_right.trc
DataRate	CameraRate	NumFrames	NumMarkers	Units	OrigDataRate	OrigDataStartFrame	OrigNumFrames
120	120	14	19	mm	120	93	369
Frame#	Time	ThumbCMC			ThumbMCP			ThumbIP			ThumbTip			IndexMCP			IndexPIP			IndexTip			MiddleMCP			MiddlePIP			MiddleTip			RingMCP			RingPIP			RingTip			PinkyMCP			PinkyPIP			PinkyTip			BackHand1			BackHand2			BackHand3	
		X0	Y0	Z0	X1	Y1	Z1	X2	Y2	Z2	X3	Y3	Z3	X4	Y4	Z4	X5	Y5	Z5	X6	Y6	Z6	X7	Y7	Z7	X8	Y8	Z8	X9	Y9	Z9	X10	Y10	Z10	X11	Y11	Z11	X12	Y12	Z12	X13	Y13	Z13	X14	Y14	Z14	X15	Y15	Z15	X16	Y16	Z16	X17	Y17	Z17	X18	Y18	Z18	
92	0.766667	175.753	59.1765	16.0554	153.098	79.1346	-0.189555	140.021	93.3428	-20.1961	126.181	89.2475	-40.7495	178.52	58.7587	-49.3179	158.499	81.3663	-59.1045	133.878	93.6955	-51.7871	174.636	25.7926	-58.8719	171.366	34.7792	-86.1963	161.68	37.3487	-109.944	158.937	10.316	-54.2886	152.222	7.0597	-77.5143	144.092	11.6525	-108.788	133.406	-1.26505	-42.7772	127.13	-2.69872	-58.6327	119.315	-11.2081	-82.5754	162.195	1.16222	-5.83829	161.591	-4.21686	25.8798	186.074	20.7121	10.6561	
93	0.775	176.714	55.5932	17.467	155.825	80.7343	1.83843	142.938	91.0657	-24.0964	129.366	93.3588	-42.6067	179.157	54.5047	-48.936	163.355	77.8109	-59.0779	134.951	91.901	-52.2927	175.75	24.0765	-56.1359	168.283	29.2114	-87.2697	163.299	37.8216	-112.302	156.414	7.6852	-54.3956	150.524	6.50136	-77.1334	146.875	10.7894	-102.432	132.407	-0.228945	-40.9192	123.064	-5.12435	-58.9311	115.777	-12.0529	-81.7216	158.942	-1.95389	-6.95043	162.218	-2.61497	27.7802	187.263	16.1281	7.79926	
94	0.783333	175.678	52.6413	21.3404	157.754	78.7238	4.22138	145.369	91.6662	-22.7782	129.979	88.2265	-44.0555	176.611	51.3599	-49.8294	160.011	75.5368	-59.8863	140.55	93.3907	-53.7798	173.754	21.1094	-57.8638	168.621	28.1441	-86.3615	162.769	35.2933	-112.92	154.306	4.23498	-53.9377	147.28	3.80864	-77.1387	142.26	5.84148	-102.982	133.013	1.47371	-38.7874	123.199	-3.53532	-59.6849	113.706	-13.2853	-83.3788	156.799	-2.11081	-5.57586	158.261	-5.68729	22.2646	187.321	14.1763	12.5146	
95	0.791667	177.817	53.402	19.2852	160.25	79.1502	3.03399	146.802	91.0744	-24.3129	133.428	86.163	-41.5962	180.727	49.2805	-48.1845	162.026	72.7282	-60.4662	141.943	90.8563	-54.1974	170.196	17.2025	-55.9984	169.353	25.4037	-84.4701	162.14	31.4438	-110.614	154.459	4.50475	-51.6679	148.102	3.69423	-76.9736	142.354	5.67751	-103.452	131.365	-0.834884	-40.4726	119.016	-5.00251	-61.2665	110.671	-11.63	-80.5181	159.049	-3.85534	-4.70518	158.389	-8.12881	23.524	183.22	10.809	7.97977	
96	0.8	180.463	51.6377	18.3243	160.801	73.3648	-0.537518	151.25	87.9802	-20.1181	136.94	88.9998	-42.0001	182.757	47.7591	-49.4413	168.638	70.646	-60.8023	141.605	85.4144	-55.7334	173.607	17.8506	-60.8855	167.357	21.6786	-85.7515	164.889	30.3911	-109.3	150.701	2.13907	-51.3949	145.932	2.52664	-81.5467	144.748	7.11566	-106.493	126.717	-4.00676	-37.7435	120.016	-3.56676	-62.6743	109.711	-13.0957	-78.8786	158.436	-4.26904	-3.10348	160.11	-8.18356	23.046	184.648	8.93508	12.0452	
97	0.808333	180.87	50.4537	18.8321	163.864	71.1261	1.32348	156.851	90.6759	-18.2187	142.627	91.1193	-41.1131	182.351	43.2727	-50.1584	167.25	68.0817	-60.4509	142.653	83.5493	-50.2713	174.864	15.768	-60.5492	171.486	22.3431	-84.1185	165.119	30.2634	-112.197	151.389	0.817189	-55.3014	144.394	0.119885	-77.8471	139.868	4.22453	-104.657	128.902	-2.49189	-39.7397	114.503	-5.49801	-61.7152	105.569	-12.5966	-82.319	155.849	-6.87555	-5.66342	159.274	-11.4006	22.6425	185.193	8.07461	9.79058	
98	0.816667	182.62	47.4499	22.2631	167.893	71.4752	4.70083	160.919	85.1324	-18.3958	150.995	94.0127	-42.4568	182.927	41.4301	-49.8513	166.548	65.7061	-59.863	144.743	83.716	-42.7675	173.049	12.1994	-59.6362	170.704	20.1155	-86.963	167.9	29.1837	-109.194	150.666	0.223829	-51.529	145.471	0.829727	-76.9359	141.07	5.05546	-102.368	124.953	-4.46576	-36.8758	118.3	-3.18907	-63.1837	106.839	-8.15783	-81.8123	158.048	-6.6738	-2.95513	157.131	-12.8014	26.3742	186.135	7.45412	8.2754	
99	0.825	185.264	44.4848	20.1341	170.641	67.9524	2.9628	166.162	84.7288	-21.5676	157.01	92.9154	-43.9959	185.986	42.2504	-48.1142	171.384	66.222	-57.6793	145.663	79.4724	-37.6358	176.649	12.4995	-59.409	171.792	18.8873	-83.8078	169.091	29.4921	-110.747	151.618	0.34478	-54.2935	143.612	0.776478	-79.8978	138.414	5.42712	-104.45	124.701	-5.09363	-40.5918	113.197	-3.7265	-60.2326	106.777	-8.42756	-82.2955	155.966	-8.23352	-6.39739	155.575	-15.5702	24.6089	184.855	5.25437	9.67854	
100	0.833333	185.493	40.4299	20.4917	176.268	68.0018	3.24397	171.088	84.1249	-17.4543	159.744	86.4939	-42.7955	184.465	38.6296	-50.0817	170.494	67.0746	-57.1637	149.196	76.7298	-38.3665	173.732	10.9054	-58.9028	170.493	18.0189	-86.3367	167.704	28.7155	-110.427	150.956	-0.671149	-52.8605	146.008	1.94001	-80.2817	139.297	9.28632	-108.324	126.691	-2.36774	-39.3397	117.473	-0.837297	-59.4928	103.124	-5.24897	-80.8071	157.957	-8.20412	-5.00648	154.537	-16.3192	22.8784	185.048	0.538048	8.72369	
101	0.841667	188.552	40.2465	17.7864	176.276	64.1136	0.945336	174.518	83.7667	-21.2616	164.992	89.9055	-39.3585	188.394	40.9633	-50.2681	174	66.2505	-56.237	150.774	76.3027	-32.2909	173.97	10.7676	-61.113	172.236	19.6304	-83.9311	167.616	32.1739	-113.486	153.38	1.28066	-54.957	145.01	4.46011	-80.3102	139.634	12.5173	-106.365	127.794	0.42369	-39.4336	114.796	2.187	-61.4068	102.995	-2.68253	-81.6007	155.273	-10.022	-2.86218	156.214	-14.7256	24.4836	183.085	-1.47748	7.87267	
102	0.85	186.995	35.8053	19.3667	179.864	64.2511	4.21013	176.788	83.5145	-18.9597	165.383	87.8442	-36.0658	186.718	37.0674	-48.9498	172.831	64.1224	-56.3174	152.662	75.7531	-31.6264	172.722	10.5291	-58.8862	169.39	20.6445	-86.5672	162.711	34.3616	-114.313	149.331	1.71676	-52.8066	143.984	6.30447	-79.1102	137.805	15.0015	-104.477	125.204	0.421567	-42.4659	112.715	4.06352	-59.6734	99.5573	2.18706	-79.01	156.54	-10.7843	-8.53376	154.945	-18.4565	24.5956	182.344	-3.42622	8.15649	
103	0.858333	190.625	35.9175	22.3903	180.689	62.2317	6.03311	177.189	79.6096	-15.032	167.116	89.2337	-38.9165	183.785	38.7061	-50.5386	172.916	68.1959	-52.2574	155.82	79.0131	-27.1641	169.166	11.8971	-58.7431	169.792	25.1085	-85.3307	165.122	38.9627	-109.256	149.464	3.64323	-55.3648	140.891	9.08144	-77.5261	133.662	19.7193	-102.052	121.731	1.80038	-41.4606	112.74	6.8605	-57.7271	99.0956	6.88901	-77.7582	153.788	-12.2428	-7.25637	156.575	-18.8458	23.4497	186.635	-2.91035	8.75668	
104	0.866667	187.927	32.3332	23.2193	184.449	64.1979	6.91655	178.487	79.5927	-13.9903	169.119	88.9393	-32.3862	188.512	40.3382	-46.5556	174.844	71.1666	-50.1364	154.033	78.8009	-26.7992	173.289	16.4175	-60.0937	166.212	27.5554	-83.3456	159.869	42.9774	-106.955	146.611	5.8392	-54.0848	141.461	14.6912	-79.2003	129.089	27.3633	-101.116	122.563	4.51796	-37.8762	109.275	11.8648	-55.8494	96.5792	16.2171	-79.81	154.631	-12.3605	-3.88615	154.675	-18.8476	24.7839	181.635	-3.75651	9.4067	
105	0.875	191.056	31.4406	22.4294	185.376	63.1035	9.41219	181.722	82.8749	-11.5238	170.72	91.477	-31.5235	186.856	43.288	-46.5198	175.771	71.0962	-47.5623	157.399	82.1054	-25.2811	169.455	18.8534	-58.3437	164.531	30.9545	-79.4278	158.132	50.6625	-103.644	146.887	10.8041	-55.1887	139.519	21.0539	-77.6799	130.602	33.6227	-96.3308	121.295	8.68307	-36.9002	108.428	19.1443	-56.6462	94.837	24.4334	-73.6066	153.553	-9.81261	-6.53043	157.255	-18.8748	22.9171	184.693	-2.34606	6.43083	
